<?xml version="1.0" ?><!DOCTYPE svg  PUBLIC '-//W3C//DTD SVG 1.1//EN'  'http://www.w3.org/Graphics/SVG/1.1/DTD/svg11.dtd'><svg enable-background="new 0 0 512 512" height="512px" id="Calque_1" version="1.1" viewBox="0 0 512 512" width="512px" xml:space="preserve" xmlns="http://www.w3.org/2000/svg" xmlns:xlink="http://www.w3.org/1999/xlink"><g><g><path d="M90.354,188.64c-1.673-1.595-2.879-3.24-2.166-2.724c-3.595-3.063-3.363-3.437-4.311-3.352    c-2.39-1.884-4.318-4.513-1.679-2.292l-6.476-5.845l3.603,3.764c-0.716-0.288-2.155-1.791-3.624-3.306l-0.551-0.566l-0.137-0.14    l-0.069-0.07l-0.277-0.305l-0.243-0.3l-0.24-0.293l-0.119-0.143c-0.037-0.042-0.123-0.182-0.179-0.269    c-0.253-0.397-0.483-0.802-0.684-1.193c-0.208-0.398-0.269-0.689-0.395-1.016c-0.099-0.316-0.229-0.608-0.278-0.89    c-0.118-0.562-0.219-1.037-0.327-1.382c0,0,0.019,0.247,0.052,0.68c0.034,0.435,0.097,1.051,0.342,1.762    c0.116,0.362,0.2,0.717,0.47,1.203c0.119,0.23,0.249,0.463,0.388,0.697l0.216,0.349c0.073,0.114,0.162,0.252,0.192,0.279    c0.176,0.212,0.358,0.433,0.543,0.656l0.035,0.042l0.267,0.295l0.078,0.077l0.156,0.154l0.314,0.311    c1.677,1.656,3.355,3.313,3.355,3.313l-0.476-0.191c1.671,1.365,4.557,4.378,5.525,5.467c-0.233-0.092-0.244,0.126-1.433-1.037    c8.019,8.084,2.919,1.419,9.742,7.957C91.54,189.923,91.028,189.399,90.354,188.64z" fill="#202020"/><path d="M96.143,196.529l3.347,2.271l4.573,4.851c0.239-0.132,3.821,3.15,1.661,0.663    c-0.484-0.425-1.437-1.268-2.146-2.01c0.927,0.125,6.466,6.065,5.487,4.274c-3.833-3.62-4.316-4.28-6.936-6.248    c-3.379-3.454-5.774-6.033-7.223-7.775c-1.075-0.953-1.464-0.849-2.801-2.089c0.291,0.28,0.557,0.538,0.891,0.86l-0.464,0.742    c1.202,0.947,2.157,2.023,3.362,3.203l-6.22-4.811c1.213,2.343,6.964,7.431,8.895,9.831    C96.392,197.096,100.96,202.177,96.143,196.529z" fill="#202020"/><path d="M92.106,190.466c-0.036-0.035-0.095-0.093-0.137-0.134C92.011,190.372,92.07,190.43,92.106,190.466z" fill="#202020"/><path d="M368.014,228.009c-1.162,1.184-1.365,1.672-1.463,1.913l13.192-13.214    c-0.572,0.255-4.571,3.862-2.125,1.226c-1.309,0.958-4.61,4.56-4.897,5.274l0.716-1.199c-2.732,3.352-5.419,4.821-3.618,2.655    l-0.253,0.26l-7.234,9.617C365.494,231.517,364.304,231.748,368.014,228.009z" fill="#202020"/><path d="M94.049,176.859c1.766,1.656,2.034,1.809,1.898,1.556C95.289,177.846,94.656,177.314,94.049,176.859z" fill="#202020"/><path d="M360.642,236.79l-2.267,3.012C359.332,238.644,360.126,237.582,360.642,236.79z" fill="#202020"/><path d="M373.255,212.836c-0.015-0.025-0.004-0.071-0.1-0.028l-0.994,1.375c0.018-0.018,0.022-0.023,0.03-0.03    C372.581,213.67,372.931,213.236,373.255,212.836z" fill="#202020"/><path d="M302.135,298.098c-0.274,0.292-0.512,0.543-0.84,0.892C301.608,298.672,301.883,298.377,302.135,298.098z" fill="#202020"/><path d="M406.891,174.938l-5.512,6.229c0.613-0.952-2.168,1.931-1.129,0.496c-0.42,0.474-2.45,2.639-1.791,2.154    l1.187-1.208c-2.602,3.59-0.536,1.905-5.292,7.414c3.48-2.893,4.608-4.559,6.071-6.471c0.547-0.598,1.004-1.098,1.468-1.604    l4.189-5.572L406.891,174.938z" fill="#202020"/><path d="M178.654,255.847l0.102,0.025C178.683,255.828,178.66,255.83,178.654,255.847z" fill="#202020"/><path d="M179.171,255.971l-0.416-0.098C179.15,256.109,180.434,257.242,179.171,255.971z" fill="#202020"/><path d="M361.291,235.5c0.012,0.172-0.215,0.623-0.649,1.29l1.689-2.249    C362.04,234.809,361.656,235.163,361.291,235.5z" fill="#202020"/><path d="M364.691,229.939l4.875-5.015l1.566-2.08C369.336,224.834,367.19,227.114,364.691,229.939z" fill="#202020"/><path d="M310.237,290.578c-10.167,10.319,1.934-3.098-2.913,1.468c-2.775,2.913-3.502,4.192-5.188,6.053    c7.888-8.36-0.191,2.011,7.856-6.329c-0.666,1.665-5.364,6.454-8.28,9.099c-3.628,2.665,2.397-3.103,2.638-4.288    c-3.209,3.367-2.542,2.875-3.669,4.539c-5.274,5.051-10.09,11.273-13.84,13.688c-3.631,3.844-3.154,3.828-5.05,6.23    c0.088,0.943,5.828-5.287,7.619-6.266c-0.33,0.243-0.977,0.716-0.888,0.481l3.34-3.123c-3.247,2.888-0.09-0.94,1.51-2.62    c1.182-1.203,3.528-3.597,3.345-3.128l-1.694,1.916c2.486-2.161,4.751-5.503,7.484-7.678c0.243-0.012-0.63,0.971-0.699,1.184    c2.397-3.102,5.069-5.733,8.891-10.053l-1.848,2.871c2.689-3.821,10.223-11.033,15.63-15.844c-0.653,0.48-1.735,1.44-1.221,0.729    c2.879-3.123,5.496-5.039,4.376-3.379c2.507-3.355,11.526-10.813,14.971-15.359l15.77-20.968    c-0.622,0.753-1.306,1.542-2.042,2.323c-2.119,1.221-2.964,2.175-0.461-1.174c-2.636,3.11-1.178,2.373-5.475,6.708    c1.467-1.919,1.38-2.862-2.808,1.22c-9.888,10.784-15.461,18.911-24.462,29.215c-0.703,0.011-8.185,7.687-11.949,11.289    c1.034-1.777,3.662-4.617,6.424-7.529c-1.792,1.769-4.879,4.812-7.168,7.069L310.237,290.578z" fill="#202020"/><path d="M333.074,265.416c-0.29,0.228-0.574,0.478-0.865,0.735C332.384,266.034,332.645,265.817,333.074,265.416z" fill="#202020"/><path d="M318.479,281c0.022-0.048-0.001-0.046-0.002-0.073c-0.289,0.307-0.578,0.613-0.874,0.927    C317.911,281.552,318.26,281.213,318.479,281z" fill="#202020"/><path d="M358.088,237.14c0.515-0.711,0.941-1.194,1.455-1.906c-0.353,0.405-0.793,0.911-1.218,1.398    C357.937,237.114,357.778,237.367,358.088,237.14z" fill="#202020"/><path d="M360.764,235.682l-0.186,0.47c0.275-0.252,0.469-0.429,0.713-0.652    C361.285,235.352,361.145,235.364,360.764,235.682z" fill="#202020"/><path d="M267.967,326.593l-0.906,1.058C267.646,327.052,267.87,326.766,267.967,326.593z" fill="#202020"/><path d="M298.239,301.401c3.529-3.596-0.09-0.942,4.947-5.984l-1.511,1.448c3.395-3.837,9.851-10.09,14.129-14.404    c-0.278,0.69,2.855-2.355,2.673-1.534c2.861-3.012,5.698-5.99,6.882-7.833c1.928-1.712,4.401-4.766,6.851-6.942    c-1.17,0.783,2.64-3.946-2.753,1.919c0.428-0.48,0.099-0.24,0.521-0.716c-3.896,3.357-4.893,5.269-8.011,8.398    c-2.058,1.677,2.747-3.362,0.908-1.676c-3.724,4.078-12.471,12.011-11.494,12.47c-2.789,2.89-3.339,3.123-4.316,3.838    c-3.727,5.256-16.993,16.338-15.976,17.274c1.601-1.679,4.293-4.329,6.489-6.944L298.239,301.401z" fill="#202020"/><path d="M352.156,243.173c-0.222,0.216-0.519,0.504-0.703,0.684C351.661,243.655,351.92,243.404,352.156,243.173z" fill="#202020"/><path d="M399.941,201.051l-0.851,2.128c-8.33,8.635-11.576,11.522-18.968,18.965    c-0.654,0.479,0.19-0.476,0.618-0.96c-5.14,5.288-13.076,12.956-16.578,17.045c-1.664,1.654-6.222,5.806-4.762,3.97    c-0.751,0.863-1.619,1.841-2.568,2.749c-0.475,0.017,2.013-2.144,1.878-2.385c-0.751,0.721-1.083,0.963-1.18,1.205    c1.041-1.436-2.063,0.506,3.727-5.255c2.772-1.7-3.944,4.068-2.031,3.339c1.92-1.912,1.468-1.918,1.56-2.154    c2.454-2.428,2.539-2.215,2.544-1.95c0.752-1.119,4.078-3.934,5.091-5.505c4.702-4.793,0.187,0.703,3.28-2.405l1.188-2.387    l5.269-5.042c7.253-7.674-2.103,0.032,6.089-8.838c-0.809,1.434,3.139-1.462,7.234-5.308c-2.354,2.397-6.354,7.179-9.599,10.068    c4.793-3.854-5.894,6.007-3.113,4.3c1.883-2.391,5.41-5.987,8.326-8.628l-0.855,0.966c3.019-2.891,4.628-5.755,8.944-9.592    c2.007-2.045,1.797-1.497,1.58-1C398.388,202.574,399.803,200.924,399.941,201.051z M395.652,205.591l-2.77,2.651    C393.624,207.698,394.631,206.683,395.652,205.591z" fill="#202020"/><path d="M134.13,234.36c-0.253-0.285-0.544-0.613-0.774-0.872C133.508,233.696,133.807,234.02,134.13,234.36z" fill="#202020"/><path d="M381.936,230.755l-1.59,1.55C380.979,231.713,381.485,231.213,381.936,230.755z" fill="#202020"/><path d="M348.679,267.97l-2.153,2.434C347.422,269.49,348.075,268.724,348.679,267.97z" fill="#202020"/><path d="M152.809,253.121l0.073,0.081c0.139,0.117,0.246,0.207,0.394,0.33L152.809,253.121z" fill="#202020"/><path d="M276.606,337.239c-0.399,0.299-0.837,0.646-1.409,1.146C275.32,338.381,275.84,337.945,276.606,337.239z" fill="#202020"/><path d="M349.075,267.522c-0.063,0.054-0.1,0.085-0.15,0.128c-0.077,0.101-0.162,0.212-0.246,0.32L349.075,267.522    z" fill="#202020"/><path d="M399.204,216.982c0.317-0.357,0.605-0.681,0.945-1.065C399.688,216.403,399.419,216.715,399.204,216.982z" fill="#202020"/><path d="M395.292,217.496c0.347-0.377,0.674-0.741,0.917-1.036L395.292,217.496z" fill="#202020"/><path d="M423.069,161.175l-2.026,2.2C422.072,162.326,422.657,161.672,423.069,161.175z" fill="#202020"/><path d="M401.279,212.294c0.095-0.15,0.191-0.3,0.246-0.409C401.251,212.196,401.148,212.37,401.279,212.294z" fill="#202020"/><path d="M122.486,219.142c0.049,0.047,0.102,0.098,0.13,0.126l0.124-0.017L122.486,219.142z" fill="#202020"/><path d="M116.473,214.876c-0.622-0.59-1.27-1.204-1.906-1.807C115.253,213.762,115.944,214.415,116.473,214.876z" fill="#202020"/><path d="M238.25,338.166c-0.473-0.646-1.682-2.063-0.971-1.549C236.083,335.671,235.851,336.046,238.25,338.166z" fill="#202020"/><path d="M136.54,225.695c-0.417-0.256-0.898-0.613-1.38-0.973C136.03,225.418,136.788,226.031,136.54,225.695z" fill="#202020"/><path d="M135.16,224.722c-0.432-0.341-0.894-0.705-1.281-1.01C134.321,224.076,134.753,224.417,135.16,224.722z" fill="#202020"/><path d="M255.861,344.739c0.113,0.093,0.295,0.12,0.545,0.114C256.323,344.716,256.132,344.745,255.861,344.739z" fill="#202020"/><path d="M113.162,211.472c-0.476-0.191-8.86-7.955-2.143-1.09c-0.707,0.183-4.563-4.151-6.483-5.852    c1.211,1.419-0.939-0.369-0.699,0.189c0.952,0.844,2.147,1.784,3.6,3.3c0.479,0.885-1.911-1.229-3.594-3.063    c1.932,2.401-3.102-2.397-0.215,0.85c6.712,6.399,11.507,10.871,16.767,14.831c-3.844-3.63-8.157-7.678-11.043-10.922l1.673,0.904    c3.126,3.803,5.517,5.688,8.888,9.131l-7.449-7.858c-3.265-3.906-0.793-1.581,2.103,1.176    C113.877,212.369,113.271,211.717,113.162,211.472z" fill="#202020"/><path d="M121.695,213.254l-0.117-0.139c-0.126-0.099-0.274-0.229-0.362-0.284L121.695,213.254z" fill="#202020"/><path d="M431.243,168.569l-0.512,0.803C431.215,168.758,431.339,168.543,431.243,168.569z" fill="#202020"/><path d="M124.397,219.683l-0.005-0.005C124.448,219.725,124.46,219.738,124.397,219.683z" fill="#202020"/><path d="M426.185,173.305c0.013-0.033,0.025-0.068,0.054-0.121C426.192,173.255,426.203,173.266,426.185,173.305z" fill="#202020"/><path d="M430.106,185.972c0.048-0.012,0.074-0.005,0.163-0.058C430.596,185.543,430.409,185.694,430.106,185.972z" fill="#202020"/><path d="M426.208,173.353c-0.012-0.012-0.034-0.013-0.023-0.048C426.185,173.33,426.168,173.371,426.208,173.353z" fill="#202020"/><path d="M348.078,254.307c0,0,0.317-0.185,0.777-0.517C348.973,253.601,348.778,253.713,348.078,254.307z" fill="#202020"/><path d="M364.349,239.176c0.115-0.085,0.183-0.135,0.33-0.245L364.349,239.176z" fill="#202020"/><path d="M240.231,343.612c0.771,0.782,1.364,1.355,1.872,1.831C241.546,344.867,240.932,344.255,240.231,343.612z" fill="#202020"/><path d="M426.239,173.184c0.124-0.205,0.315-0.48,0.648-0.917C426.518,172.747,426.336,173.014,426.239,173.184z" fill="#202020"/><path d="M326.082,280.19c0.153-0.182,0.296-0.353,0.44-0.524l-0.306,0.268L326.082,280.19z" fill="#202020"/><path d="M317.606,288.101c0.236-0.323,0.318-0.497,0.437-0.693c-2.765,3.084-8.312,8.283-8.538,9.328    c0.982-1.003,6.367-5.907,5.73-4.79c1.937-2.142,5.236-4.868,6.267-6.033c-3.57,3.123-0.707,0.017,1.415-2.381    c2.174-1.936-0.058,0.716,1.788-0.978l4.709-4.8l-4.195,4.088l0.864-1.652c-0.14,0.167-0.235,0.281-0.385,0.46    C318.873,287.841,324.526,280.67,317.606,288.101z" fill="#202020"/><path d="M318.042,287.408c0.413-0.464,0.769-0.879,1.025-1.22C318.413,286.855,318.197,287.152,318.042,287.408z" fill="#202020"/><path d="M288.767,315.385c-0.342,0.378-0.712,0.788-1.178,1.303C287.811,316.442,288.324,315.874,288.767,315.385z    " fill="#202020"/><path d="M374.711,219.395c0.238-0.007,4.561-3.851,4.185-4.081c-1.243,1.18-2.496,2.369-3.754,3.563    L374.711,219.395z" fill="#202020"/><path d="M210.103,305.77c0.445,0.464,0.898,0.924,1.359,1.375c0.115,0.08,0.226,0.158,0.313,0.219    C211.541,307.041,210.586,306.197,210.103,305.77z" fill="#202020"/><path d="M314.115,293.349c0.702-0.795,0.987-1.176,1.119-1.403C314.774,292.455,314.365,292.941,314.115,293.349z" fill="#202020"/><path d="M210.566,304.795c-0.493-0.666-1.214-1.651-1.22-1.888c-1.183-1.188-2.173-1.861-3.437-3.011    C207.315,301.214,208.86,302.819,210.566,304.795z" fill="#202020"/><path d="M205.805,299.803c0.036,0.032,0.072,0.064,0.104,0.093L205.805,299.803z" fill="#202020"/><path d="M372.154,221.696c-0.331,0.372-0.671,0.755-1.021,1.149l0.484-0.646c-0.971,0.909-1.935,1.812-2.9,2.717    c-0.319,0.358-0.668,0.743-1.108,1.205c0.171-0.193,0.279-0.366,0.334-0.486c-0.316,0.292-0.626,0.579-0.936,0.865    c-1.923,2.549-7.26,8.344-8.681,10.133c-1.99,2.258-4.514,4.934-6.169,6.541c1.518-1.505,3.461-3.574,2.686-3.145    c-3.249,2.888-5.26,3.86-10.109,9.603l3.099-3.113l-6.312,7.656c-2.725,2.168,3.15-3.821,3.878-5.032    c-5.101,5.763-10.503,9.395-12.438,12.495c-0.7,0.01-1.871,0.028-5.401,3.627c2.964-2.176-1.884,2.39,0.646,0.703    c-1.033,1.429-4.1,3.851-4.046,4.314l0.19-0.477c-6.633,5.539-7.769,8.388-10.09,11.273c-7.146,7.428-10.717,10.551-16.602,16.552    c-0.464,0.002-2.719,0.983-5.079,3.393c-0.795,1.421-6.028,6.944-6.176,7.895c4.43-4.096,3.151-3.824,5.608-6.47    c2.545-1.704,0.608,0.223,3.761-2.427c-2.505,2.178-10.36,10.799-13.319,12.969l0.851-0.96    c-4.333,3.854-6.107,3.644-12.327,11.063l-3.008,3.5c0.117-0.196,0.088-0.262,0.136-0.381c-2.685,2.642-3.777,3.485-4.889,4.449    c-0.279,0.242-0.554,0.485-0.866,0.777c-0.335,0.316-0.698,0.671-1.121,1.101c-0.848,0.861-1.92,2.012-3.545,3.816    c0.502-0.557,0.17-0.313,0.673-0.869c-0.805,0.708-1.583,1.452-2.354,2.23c-1.432-1.419-2.86-2.692-4.276-3.939    c-0.721-0.634-1.418-1.247-2.083-1.833c-0.603-0.539-1.177-1.054-1.715-1.535c-1.213-1.881,0.696,0.038,1.895,0.753    c-5.768-6.026-12.705-11.816-16.774-15.07l-3.605-3.997c2.392,2.116,5.5,4.519,5.014,3.629c-2.157-2.023-1.911-1.461-4.803-4.481    c0.718,0.29,2.158,1.331,3.817,2.452c-5.756-6.472-2.125-0.608-5.748-5.543c-1.917-1.926-3.345-2.729-3.813-2.681l-3.143-3.818    c-0.716-0.058-5.031-4.336-7.896-7.102c-0.485-0.202,1.916,2.618,3.11,3.558c-0.468,0.049-3.585-2.825-5.507-4.757    c-0.016-1.396-12.713-12.514-9.623-11.049c-8.878-8.429-21.104-20.517-27.104-25.94c-1.693-2.074-5.522-5.922-2.897-3.945    c-6.963-6.969-11.263-9.854-17.989-16.956c-0.486-0.659,3.132,3.119,3.116,2.644c-4.795-4.243-7.93-8.515-15.127-15.342    c1.192,1.167,1.679,1.369,1.914,1.461c0.009,0.237-3.11-2.635-5.035-4.338c-0.96-1.079,1.441,1.275,0.957,0.615    c-13.21-13.88-24.468-23.262-37.909-36.765c3.838,3.856,5.75,4.854,5.978,4.708l-3.761-3.777c-1.681-1.224-4.51-4.055-7.047-6.25    c-0.205-0.376-1.263-1.62,0.019-0.553c-3.491-3.954-6.607-6.653-9.961-9.533c-0.837-0.722-1.688-1.456-2.569-2.217l-0.328-0.283    l-0.264-0.169c-0.171-0.116-0.33-0.25-0.535-0.307c-0.369-0.184-0.785-0.278-1.202-0.312c-0.42-0.03-0.855,0.01-1.268,0.141    c-0.193,0.079-0.451,0.125-0.55,0.223c-0.068,0.04-0.14,0.072-0.217,0.099l-0.061,0.021l-0.101,0.085l-0.203,0.17l-0.412,0.343    l-0.052,0.043l-0.006,0.005c0.264-0.239,0.071-0.063,0.129-0.116l-0.006,0.009l-0.013,0.018l-0.052,0.071l-0.107,0.138l-0.23,0.27    c-0.05,0.108-0.104,0.215-0.162,0.32c-0.156,0.226-0.159,0.389-0.246,0.554c-0.052,0.039-0.074,0.254-0.095,0.457    c-0.024,0.197-0.047,0.396-0.071,0.596c0,0,0.003-0.245,0.008-0.674c0.005-0.091-0.006-0.26,0.013-0.32    c0.019-0.062,0.035-0.128,0.048-0.203c0.013-0.075,0.022-0.156,0.027-0.249c0.042-0.105,0.086-0.216,0.132-0.332    c0.064-0.253,0.222-0.479,0.387-0.731l0.06-0.098l0.03-0.05l0.015-0.025l0.004-0.006l0.002-0.003    c0.095-0.086-0.128,0.115-0.104,0.093l0.015-0.014l0.235-0.228c0.159-0.152,0.32-0.308,0.485-0.466    c0.39-0.277,1.11-0.667,1.874-0.756c0.763-0.058,1.558,0.08,2.247,0.414c0.328,0.211,0.617,0.369,0.947,0.647    c0.321,0.272,0.625,0.529,0.906,0.767c1.122,0.949,1.87,1.582,1.87,1.582l-2.413-3.054l5.277,4.438    c-2.688-3.139-5.627-5.129-6.004-5.742c0.245,0.066,0.515,0.257,0.807,0.476c0.145,0.109,0.295,0.223,0.446,0.337    c0.124,0.111,0.248,0.222,0.367,0.328c0.479,0.424,0.899,0.766,1.016,0.695c-0.683-0.734-1.118-1.258-1.784-1.753    c-0.285-0.254-0.595-0.399-0.883-0.532c-0.287-0.133-0.545-0.266-0.827-0.31c-0.272-0.057-0.537-0.112-0.806-0.169    c-0.272-0.006-0.55-0.013-0.848-0.02c-0.294-0.027-0.605,0.05-0.946,0.096c-0.346,0.028-0.704,0.146-1.104,0.286    c1.007-0.487,2.367-0.67,3.746-0.272c0.68,0.196,1.385,0.509,1.99,0.999c0.149,0.113,0.332,0.242,0.455,0.35l0.363,0.321    c0.243,0.216,0.488,0.436,0.736,0.658c1.981,1.78,4.103,3.761,6.217,5.769c4.208,4.036,8.453,8.108,11.425,10.958    c0.971,0.861-0.954-0.614-1.188-0.705c2.399,2.352,3.604,3.998,6.717,6.865c2.154,1.56-1.198-1.635-2.641-3.14    c0.462-0.056,1.188,0.701,2.868,2.303c0.011,0.702,8.888,9.132,10.582,11.669c8.878,8.661-0.509-2.296,7.902,6.414l2.162,2.952    c5.275,4.665,11.974,10.822,17.513,16.53l-1.198-1.172c-0.958-0.621,0.242,0.788,0.733,1.452    c4.081,4.419,8.379,7.758,10.559,10.729c5.267,4.427,13.659,12.198,19.418,17.523c0.975,2.016-7.671-6.788-10.303-8.769    l5.047,5.043c-3.125-3.112-4.555-4.145-6.721-5.718c4.324,4.518,6.234,5.516,10.558,9.576c-0.468-0.185,0.005,0.462,1.934,2.399    l0.895,0.203c0.007,0.063,0.195,0.304,0.77,0.923l7.669,7.246c-1.434-1.73-1.21-2.107-3.132-4.038    c0.486,0.89-1.188-0.704-3.11-2.639c1.915,1.464-1.689-2.07-1.462-2.216c3.855,3.875,8.651,8.577,11.28,11.017l0.505,1.142    c3.603,3.765,7.671,7.477,10.076,10.067l-0.957-0.618c4.322,4.517,8.878,8.663,12.492,12.898    c4.306,3.578,9.572,8.237,13.174,11.079c2.134,1.312,11.051,12.083,16.074,15.948c0.255,0.344-3.362-2.743-5.034-4.104    c2.893,3.021,5.754,4.859,6.248,6.219c-6.489-6.779,0.012,0.701-3.1-2.164c3.114,3.099,6.467,6.296,8.146,7.665    c-5.031-5.024,2.383,1.188-2.895-3.714c2.05,1.704,4.376,3.783,6.741,6.014c0.75,0.713,1.516,1.44,2.278,2.165    c0.537,0.528,1.06,1.074,1.583,1.651c0.113-0.101,0.22-0.195,0.325-0.289c0,0.374,0.284,0.264,1.247-0.545    c0.019-0.019,0.559-1.1,0.539-1.081c0.548-0.499,0.114,0.096-0.239,0.621c-0.344,0.516-0.607,0.963,0.652-0.2    c0.307-0.423,0.429-0.623,1.228-1.474c0.664-0.717,1.391-1.469,2.15-2.239c1.536-1.524,3.177-3.153,4.737-4.701    c3.126-3.093,5.882-5.914,6.451-7.339c3.81-3.134-6.264,6.948-0.617,2.13c-2.734,3.354-7.287,7.197-7.863,8.628    c2.861-3.104,1.45-0.727,3.38-2.647l3.063-3.591l-0.752,0.72c5.18-5.986,14.219-14.639,21.28-21.837    c5.608-6.47,9.144-11.25,16.435-18.447c-1.886,2.392,6.259-5.772,2.162-0.749c3.575-3.129,6.62-6.702,6.499-6.955    c-3.013,2.885-1.097,0.978-3.673,3.369c1.45-1.903,5.326-5.758,7.062-7.198c-0.753,0.72-0.43,0.483-0.521,0.717    c3.674-3.369,1.463-1.913,3.913-4.552c1.124-0.49,5.703-5.534,8.19-7.694l2.918-3.821c-1.554,2.148,3.338-3.121,4.143-3.378    c2.207-2.626,3.865-5.02,7.625-8.62c-1.365,1.675,3.581-3.133,3.946-2.896c6.59-6.013,9.613-11.257,16.014-16.793    c-0.115,0.256-1.122,1.659,0.698-0.01c1.29-1.458,3.731-3.829,5.169-5.332l-0.038,0.055c0.025-0.032,0.041-0.052,0.068-0.085    c0.703-0.736,1.118-1.226,1.063-1.317c2.221-2.812,3.217-4.41,7.919-9.613c-0.709,0.019-4.756,4.333-6.455,6.255l-1.224,1.905    c-2.016,0.975-4.376,4.556-5.689,5.52c2.36-3.581,11.065-11.986,15.822-17.494c-3.609,2.648-10.492,9.38-16.373,15.378    l2.822-2.409l-3.101,3.114l3.375-2.641c-3.009,2.88-5.459,5.519-8.141,8.158c3.108-3.122,4.798-3.859,2.96-2.172    c-3.81,3.133-3.396,3.838-6.07,6.471c1.509-1.446,3.436-3.361,2.395-1.925c-5.646,4.818-6.79,6.501-11.99,10.816    c1.165-0.015-5.888,6.002-6.129,7.186l2.256-2.16l-4.336,5.031c-4.79,3.853,3.349-4.303-3.559,1.941    c-6.125,6.01-5.364,6.457-10.09,11.272c1.23-1.913,4.722-5.988,8.58-9.828l-2.495,2.167c1.036-1.431,6.402-6.714,9.079-9.351    c-3.999,4.782,2.175-1.935,4.479-3.626c0.037-0.697-2.729,2.174,0.334-1.419c-3.112,3.125-3.54,3.608-7.632,7.451    c8.726-8.425,6.566-8.855,14.328-16.063c-3.301,3.599,1.679-0.727,2.254-0.982c1.584-1.663,4.799-5.035,6.07-6.471l-1.703,0.75    c4.155-4.566,6.679-5.072,11.221-10.596c0.368-0.939-4.523,4.33-3.674,3.369c6.587-7.185,9.835-8.898,16.307-14.654    c0.203-0.488-0.17-0.719,1.717-3.109c-0.386,0.958,1.343-0.479-0.854,2.137c2.164-1.923,4.376-4.555,6.068-6.47    c-4.423,4.088,1.33-2.152,1.943-3.107c2.253-2.156-0.387,0.957-1.66,2.396c1.847-1.693,4.37-3.375,4.947-4.808    c0.37,0.231-4.155,5.739-7.357,9.098l2.26-2.164c-1.37,1.678-1.698,1.919-3.94,4.068c2.382-1.916,2.428-1.446,2.142-0.731    c-0.325,0.238,0.085-0.228-0.227-0.002c-1.845,1.691-3.118,3.129-2.549,2.88c-1.185,1.994,2.705-2.199,4.104-3.195    c0.878-0.932,1.756-1.865,2.617-2.779l7.886-10.483c3.772-4.075,5.848-5.529,8.991-8.28l0.461-1.157    c3.45-3.378,6.782-6.49,5.034-3.862c-0.239,0.007-0.662,0.485-1.42,1.21c-0.052,0.145-0.189,0.35-0.377,0.592    c-0.051,0.092-0.07,0.151-0.109,0.23c3.539-3.774,5.748-6.13,5.952-6.348c-5.705,6.712,0.32,0.94-0.103,2.595    c0,0,1.518-1.618,3.035-3.236c0.379-0.405,0.758-0.809,1.114-1.188c0.178-0.189,0.35-0.373,0.513-0.546    c0.285-0.253,0.555-0.492,0.805-0.713c0.078-0.068,0.153-0.134,0.225-0.196c0.016-0.02,0.109-0.083,0.193-0.14    c0.083-0.055,0.163-0.108,0.241-0.16c0.316-0.204,0.604-0.371,0.842-0.5c0.482-0.263,0.759-0.38,0.744-0.367    c-0.655,0.255-1.273,0.597-1.759,0.887c-0.105,0.064-0.282,0.172-0.311,0.195c-0.049,0.035-0.096,0.067-0.141,0.099    c-0.09,0.063-0.173,0.12-0.248,0.172c-0.153,0.102-0.277,0.184-0.376,0.25l-0.036,0.022l-0.009,0.005l-0.323,0.292l-0.016,0.012    l-0.058,0.042c-0.036,0.024-0.066,0.045-0.091,0.062c-0.102,0.063-0.122,0.047-0.083-0.027c0.021-0.037,0.055-0.088,0.103-0.152    l0.038-0.05l0.003-0.003l0.33-0.299l0.006-0.006l0.012-0.012l0.024-0.026c0.033-0.034,0.07-0.071,0.109-0.111    c0.165-0.161,0.345-0.339,0.603-0.568c0.577-0.417,1.285-0.847,1.996-1.18c0.604-0.224,1.23-0.437,1.817-0.576    c0.595-0.098,1.153-0.162,1.608-0.202c0.127,0.042,0.432,0.119,0.878,0.186c0.445,0.08,1.033,0.131,1.7,0.361    c0.335,0.102,0.695,0.217,1.071,0.349c0.361,0.167,0.74,0.36,1.129,0.57c0.4,0.196,0.772,0.458,1.139,0.758    c0.184,0.149,0.369,0.3,0.558,0.453l0.277,0.238l0.035,0.03l0.317,0.352l0.032,0.037l0.064,0.075    c0.172,0.199,0.348,0.403,0.525,0.608c0.31,0.421,0.692,1.045,0.977,1.602l0.213,0.434l0.13,0.368l0.239,0.744    c0.169,0.495,0.246,1.001,0.296,1.507c0.152,1.007,0.033,1.997-0.106,2.897c-0.227,0.89-0.464,1.711-0.849,2.357l0.106-0.435    c-0.333,0.597-0.661,1.277-1.194,1.863c-0.247,0.299-0.53,0.625-0.792,0.904c-0.161,0.154-0.327,0.313-0.496,0.474    c-0.665,0.657-1.386,1.369-2.123,2.096c-1.459,1.47-2.954,3.029-4.177,4.346c0.231,0-2.46,3.824-3.683,5.729    c4.486-4.227,2.039-1.503,2.604-1.637c-0.47,0.432-1.285,1.238-1.335,1.377c-0.525,0.722,0.978-0.715,1.215-0.724    c2.235-2.396,4.532-4.797,6.446-6.896c0.957-1.049,1.819-2.022,2.529-2.882c0.214-0.264,0.419-0.517,0.614-0.757    c0.357-0.447,0.675-0.89,0.951-1.314c0.526-0.864,0.843-1.723,1.059-2.42c-0.529,0.973-0.998,1.895-1.631,2.642    c-0.287,0.37-0.641,0.803-0.887,1.089l-0.427,0.51c-0.565,0.688-1.144,1.407-2.013,2.129c0.493-0.655,1.051-1.328,1.672-2.027    c0.156-0.174,0.315-0.351,0.478-0.53l0.29-0.321c0.169-0.203,0.34-0.407,0.512-0.613c0.707-0.812,1.236-1.799,1.709-2.848    c0.838-2.136,1.056-4.668,0.308-7.158c-0.093-0.311-0.193-0.623-0.303-0.932c-0.166-0.376-0.357-0.759-0.566-1.133    c-0.208-0.374-0.436-0.742-0.678-1.095l-0.085-0.122l-0.037-0.046l-0.075-0.093l-0.15-0.186l-0.305-0.377l-0.039-0.047    l-0.019-0.024l-0.402-0.444l-0.023-0.022l-0.195-0.175l-0.399-0.345c-0.544-0.457-1.103-0.904-1.765-1.231    c0,0-0.202-0.135-0.506-0.336c-0.305-0.206-0.723-0.455-1.179-0.637c-0.449-0.198-0.913-0.378-1.265-0.504    c-0.353-0.118-0.598-0.161-0.598-0.161c0,0-0.189-0.018-0.521-0.049c-0.332-0.017-0.808-0.079-1.373-0.042    c-0.566,0.044-1.232,0.11-1.926,0.242c-0.701,0.192-1.382,0.383-2.15,0.712c-0.435,0.209-0.864,0.443-1.272,0.693    c-0.204,0.125-0.402,0.253-0.594,0.384l-0.282,0.197c-0.118,0.083-0.085,0.069-0.135,0.108c-0.24,0.213-0.464,0.412-0.656,0.583    c-0.162,0.146-0.321,0.291-0.479,0.434l-0.032,0.034l-0.061,0.066c-0.04,0.043-0.077,0.084-0.112,0.122    c-0.071,0.077-0.133,0.144-0.184,0.199c-0.102,0.11-0.16,0.173-0.16,0.173c0.184-0.221,0.323-0.404,0.437-0.563l0.041-0.059    l0.02-0.028l0.452-0.41l0.003-0.003l0.006-0.006l0.011-0.013l0.081-0.1c0.051-0.066,0.098-0.126,0.142-0.184    c0.084-0.119,0.16-0.226,0.239-0.338c0.04-0.056,0.081-0.113,0.124-0.173c0.077-0.083,0.303-0.258,0.478-0.393    c0.383-0.291,0.855-0.615,1.479-0.958c0.156-0.081,0.319-0.165,0.491-0.254c0.142-0.056,0.29-0.115,0.446-0.177    c0.315-0.12,0.669-0.243,1.064-0.364c1.553-0.407,3.979-0.844,7.149,0.374c-0.365-0.204-1.35-0.686-2.804-0.878    c-0.73-0.085-1.566-0.179-2.479-0.063c-0.456,0.045-0.932,0.096-1.412,0.19c-0.478,0.121-0.97,0.264-1.466,0.431    c-0.828,0.196-2.629,1.257-3.299,1.809l-0.545,0.472l-0.637,0.571l-0.125,0.132l-0.252,0.263c-0.673,0.701-1.354,1.391-2,1.99    l-0.887,1.657c0.275-0.705-5.091,4.579-1.601,0.502c0,0,1.46-1.617,2.92-3.235c0.365-0.404,0.73-0.809,1.072-1.188    c0.086-0.095,0.17-0.188,0.252-0.279l0.122-0.135l0.061-0.067l0.029-0.033l0.008-0.008l0.55-0.498l0.016-0.015    c0.174-0.157,0.338-0.306,0.489-0.443c0.075-0.068,0.148-0.134,0.217-0.197l0.026-0.023l0.087-0.064l0.174-0.125    c0.116-0.081,0.229-0.159,0.339-0.234c0.444-0.298,0.852-0.537,1.19-0.722c0.688-0.374,1.079-0.531,1.051-0.514    c0.03-0.02-0.419,0.134-1.099,0.452c-0.336,0.157-0.726,0.355-1.13,0.587c-0.199,0.12-0.404,0.245-0.613,0.371l-0.188,0.119    l-0.099,0.058c-0.264,0.155-0.527,0.311-0.726,0.427l-0.002,0.001l-0.575,0.52l-0.005,0.003l-0.008,0.006l-0.018,0.012    l-0.032,0.024l-0.06,0.044c-0.038,0.027-0.07,0.052-0.098,0.071c-0.054,0.04-0.085,0.063-0.085,0.063s0.08-0.083,0.221-0.227    l0.027-0.028c0.197-0.179,0.4-0.362,0.607-0.55l0.066-0.056c0.047-0.039,0.097-0.082,0.15-0.126    c0.107-0.09,0.229-0.192,0.36-0.303l0.102-0.085l0.052-0.043l0.026-0.022l0.088-0.064c0.251-0.18,0.519-0.36,0.8-0.538    c0.563-0.354,1.188-0.695,1.843-0.993c0.567-0.232,1.072-0.383,1.643-0.551c0.28-0.073,0.563-0.147,0.847-0.221l0.87-0.122    c2.34-0.368,4.705,0.161,6.359,0.776c0.811,0.354,1.469,0.711,1.918,0.968c0.457,0.249,0.679,0.441,0.679,0.441    s-0.059-0.038-0.16-0.104c-0.1-0.068-0.25-0.155-0.439-0.246c-0.374-0.19-0.881-0.429-1.394-0.641    c-0.508-0.229-1.036-0.374-1.439-0.468c-0.401-0.093-0.67-0.154-0.67-0.154c0.45,0.121,0.885,0.253,1.302,0.396    c0.411,0.152,0.796,0.351,1.172,0.536c0.375,0.19,0.733,0.387,1.074,0.586c0.333,0.209,0.631,0.448,0.927,0.675    c0.293,0.23,0.571,0.462,0.835,0.693l0.194,0.173l0.096,0.086l0.023,0.021l0.531,0.586l0.017,0.019l0.128,0.154    c0.166,0.203,0.322,0.393,0.47,0.572c0.756,1.019,1.576,2.555,1.788,3.337c0.261,0.857,0.481,1.606,0.541,2.27    c0.147,1.335,0.109,2.273-0.035,3.004c-0.132,0.731-0.234,1.259-0.447,1.765c-0.193,0.509-0.399,1.013-0.685,1.679    c-0.344,0.635-0.746,1.486-1.51,2.514c-0.198,0.253-0.416,0.521-0.657,0.804c-0.123,0.14-0.249,0.284-0.38,0.434l-0.204,0.225    l-0.104,0.104c-0.25,0.256-0.534,0.548-0.86,0.883c-0.645,0.676-1.439,1.538-2.435,2.647c-2.167,3.1-4.948,5.982-10.219,11.025    c3.627-3.836,0.054-0.712,1.188-2.386c-4.001,3.611-4.901,5.281-6.694,7.437c-1.216,0.723-2.106,1.211,1.329-2.153    c-0.09-0.941-4.384,4.562-5.225,4.341c-11.248,11.28-7.311,10.741-21.142,23.245l0.279-0.708    c-8.094,8.628-13.174,13.196-20.748,21.108l-6.641,5.551c1.279-1.447,4.538-5.52,2.564-4.072c3.517-2.414,6.471-5.754,9.961-8.653    c0.184-0.469-1.221,0.728-1.876,1.207c1.933-1.923,3.147-2.644,5.599-5.286c-0.236,0.009-3.151,2.65-1.125,0.49l3.804-3.125    c4.474-4.797,1.471-3.095,7.07-8.383c-0.709,1.315-2.339,3.82-4.374,6c2.553-2.422-3.134,3.5-0.683,1.41    c3.136-4.032,5.221-5.407,9.705-10.453c-0.497,0.622-0.557,0.857-1.702,2.058l7.104-6.725c-1.973,1.449,5.424-5.999,4.391-5.745    c-7.53,7.207-5.129,5.277-13.747,13.453c2.289-2.466,4.957-5.927,6.029-7.728c0.088-0.058,0.222-0.167,0.487-0.418    c0.897-1.668-0.515-0.464-1.163-1.163c-3.354,4.313-6.311,6.481-10.556,11.278c-0.481,1.219,3.094-2.153,5.245-4.495l-3.738,4.227    l0.614-0.954l-10.232,9.985c1.896-1.935,2.332-2.8,3.17-3.96c-1.318,1.29-2.708,2.484-4.188,3.751    c0.641,0.063,0.707,0.494-0.571,1.759c-6.589,6.421-10.521,9.72-13.323,11.718c-0.241,0.258-0.514,0.548-0.732,0.782    c1.451-0.73-3.97,5.268-5.617,7.652c-0.272-0.473-3.575,3.128-5.641,4.812c-0.569,1.427,1.353,0.687,3.985-1.246    c4.007-4.79,2.069-2.86,3.592-5.493l6.685-7.425l-1.235,1.919c3.672-3.371,6.604-7.204,6.789-6.501    c-1.564,2.157-4.816,5.049-6.365,7.192l2.492-2.166c-3.673,4.546-2.527,1.686-7.198,6.965c2.208-1.452-0.424,0.478-2.302,2.863    c1.974-1.448,8.653-8.868,7.8-6.731c-2.307,2.868-9.458,7.953-12.242,12.014l0.095-0.24c-5.134,4.967-6.542,7.108-8.202,9.23    c-2.356,1.941-5.031,5.201-7.337,7.553l-0.13-0.243l-3.208,3.363c1.225-1.904,3.86-3.842,6.634-6.714l-0.698,0.004    c3.666-2.842,5.21-5.638,7.435-8.461c-3.372,3.974-10.456,10.287-10.641,11.827l-2.622,1.922l-0.961,1.214    c-1.956,1.43-0.64-0.711,2.564-4.072c0.658-0.482,0.986-0.724,0.886-0.479c1.369-1.679,2.498-3.347,6.266-6.954l-1.784,2.15    c4.615-4.565,8.655-8.873,9.886-10.785c-6.772,6.482-13.319,12.969-19.526,19.207c-1.052,2.62-2.789,5.237-2.996,6.901    c-4.041,4.311-9.609,10.079-13.502,13.438l0.189-0.477c-1.844,1.695-3.436,3.365-4.712,4.808    c-2.061,1.678,0.895-1.665-0.512-0.466l-5.736,6.225c0.039-0.699,5.069-5.732,7.436-8.146c-0.423,0.479-1.278,1.444-0.941,1.196    c2.915-2.645,7.532-8.385,9.225-9.123c1.271-1.438-2.399,3.104,2.211-1.457c3.25-2.89,3.821-4.318,3.999-4.782    c-0.137-0.237-5.074,4.563-3.61,2.648c-2.366,2.413-3.077,3.605-6.313,6.481c2.346-2.392,5.184-5.986,6.735-6.958    c4.335-5.031,2.786-5.236,0.529-3.077c0.801-0.251-8.204,8.882-1.705,3.099c-2.405,3.112-7.441,8.154-10.83,11.984l0.094-0.235    l-4.392,4.568c0.532-0.729,1.804-2.167,1.662-2.396l-5.704,6.705c3.156-3.829-2.398,1.932-4.137,3.373    c-0.379,0.95-2.593,3.583-0.104,1.421c2.822-2.406,1.367-1.676,3.723-4.075l-2.915,3.817l-0.333,0.244l-1.657,2.396    c-4.611,4.559,1.146-2.86-4.369,3.376l1.268-0.263c-6.876,6.729-16.177,14.898-20.751,19.937c1.04-1.612,1.164-2.656-0.932-1.106    c2.159-1.985,6.306-6.168,9.231-9.188c0.66-0.483-3.119,4.308-6.457,7.429c2.388-0.741,7.625-8.62,8.839-8.165    c8.52-7.937,5.334-6.941,12.808-13.435c-0.276-0.469,1.803-2.168,1.841-2.863c-2.675,1.459-9.314,9.356-14.06,13.676    c0.417-0.471,1.254-1.42,1.358-1.664c-3.349,3.13-4.604,4.552-6.729,6.952l0.329-0.24c-3.59,4.318-2.725,2.168-5.216,4.332    c-0.847,0.957-4.19,4.085-3.396,3.838l-4.568,3.861l0.619,0.213c-2.353,2.401-3.147,2.646-5.049,5.055l0.272,0.472l6.033-5.774    c-2.87,3.114-0.478,1.19-3.688,4.557c1.633-2.04,0.932-1.442-0.266-0.332c-0.6,0.555-1.322,1.237-1.939,1.783    c-0.309,0.272-0.592,0.511-0.818,0.682c-0.117,0.087-0.208,0.148-0.303,0.205c-0.126,0.082-0.222,0.132-0.28,0.145    c0,0-0.968,0.981-1.936,1.964c-0.494,0.499-0.987,0.998-1.358,1.372c-0.386,0.348-0.687,0.481-0.681,0.497    c0,0,0.277-0.206,0.555-0.413c0.246-0.271,0.492-0.541,0.492-0.541c-0.209,0.163-0.399,0.335-0.592,0.473    c-0.204,0.109-0.398,0.214-0.584,0.313c-0.372,0.197-0.689,0.418-1.04,0.528c-0.337,0.142-0.651,0.273-0.959,0.402    c-0.313,0.113-0.632,0.187-0.949,0.285c-0.631,0.226-1.323,0.286-2.147,0.376c-0.413-0.013-0.862-0.037-1.36-0.081    c-0.493-0.07-1.022-0.221-1.617-0.359c2.739,0.948,5.377,0.792,7.76-0.284c1.206-0.491,2.228-1.594,3.41-2.644    c0.566-0.524,1.236-1.144,1.781-1.683c0.353-0.389,0.719-0.804,1.102-1.253c-0.279,0.327-0.593,0.693-0.93,1.088    c-0.103,0.111-0.131,0.166-0.299,0.329c-0.16,0.158-0.322,0.317-0.487,0.479c-0.331,0.324-0.671,0.656-1.018,0.995    c-0.702,0.681-1.428,1.385-2.157,2.092c-0.785,0.591-1.623,1.076-2.526,1.404c-1.788,0.68-3.664,0.889-5.186,0.684    c-0.744-0.154-1.438-0.234-1.98-0.44c-0.542-0.202-1.005-0.334-1.309-0.493c-1.362-0.541-2.386-1.664-3.423-2.568    c-0.966-0.888-2.195-2.006-2.496-2.407c-1.003-1.116-1.961-2.237-3.13-3.448c2.359,2.21,2.241,1.527,2.645,1.471    c0.202-0.028,0.534,0.1,1.371,0.823c0.55,0.495,1.291,1.163,2.297,2.07c0.581,0.537,1.237,1.146,1.981,1.834    c0.392,0.3,0.842,0.537,1.3,0.834c0.5,0.21,1.021,0.466,1.602,0.646c-0.37,0.021-1.852-0.583-2.312-1.018    c0.474,0.509,1.417,1.09,2.693,1.405c1.255,0.385,2.86,0.404,4.396-0.019c0.783-0.168,1.509-0.529,2.228-0.862    c0.658-0.446,1.324-0.835,1.845-1.461c1.071-1.11,2.052-2.127,2.813-2.915c-0.534,0.229,0.003-0.429-0.115-0.465    c0.034-0.154-0.619,0.337-3.317,2.697c0.462-0.347,0.446-0.219,0.061,0.254c-0.098,0.115-0.213,0.263-0.359,0.411    c-0.159,0.121-0.34,0.259-0.54,0.411c-0.205,0.144-0.418,0.325-0.676,0.471c-0.269,0.129-0.555,0.267-0.858,0.412    c-1.231,0.512-2.9,0.902-4.639,0.608c-1.737-0.286-3.436-1.048-4.666-2.42c0,0,0.324,0.024,0.647,0.048    c0.31,0.033,0.623,0.008,0.628-0.005c-0.016,0.034-0.459-0.394-1.125-1.026c-0.652-0.622-1.522-1.451-2.393-2.279    c-1.202-1.236-2.403-2.473-2.403-2.473l0.484,0.429c-1.456-2.212-5.275-5.129-8.41-8.708c-2.632-2.215-11.765-11.68-8.377-7.065    c-2.646-3.381-5.759-5.558-9.125-8.767l3.859,4.338c-5.265-4.426-3.599-3.302-8.144-6.512c-0.232-0.553-0.964-1.549-0.008-0.93    c-6.479-6.54-15.61-16.003-19.909-19.342c-4.563-4.614-4.593-6.024-11.302-12.192c-1.438-1.273,0.509,1.604-3.585-2.826    c-0.244-0.33,4.538,3.67-0.255-1.031c-3.832-2.93-7.691-8.19-12.48-12.197c-2.16-2.484-6.25-6.452-5.054-5.97    c3.597,3.76,8.876,8.891,9.841,9.512c-0.724-0.292,2.407,2.825-0.469,0.28c5.29,5.83,3.83,3.388,8.633,8.56    c0.487,0.201-2.169-2.959-3.366-3.9c0.464-0.511,10.07,9.6,6.221,4.581c-5.288-5.372-7.886-5.938-11.992-11.07    c2.148,1.555,4.793,4.702,7.657,6.542l-3.6-3.991l-3.107-2.403l0.236,0.093c-6.258-7.15-6.704-5.7-12.946-11.454    c3.137,3.813-1.649,0.042,0.758,2.863c-4.074-3.949-6.955-6.96-6.494-7.474c7.902,7.107,0.942-0.09,8.365,6.362    c-0.964-1.313,2.365,0.938-1.715-3.25c-5.006-4.31,0.988,1.8-3.819-2.686c-0.231-0.317-0.472-0.647-0.239-0.556    c-2.39-1.883-2.401-2.584-5.267-4.89l0.71,0.515c-2.892-3.484-3.822-3.152-6.244-6.219c0.736,1.459-2.14-1.546-4.067-3.022    c2.645,2.918,3.632,4.944,9.149,10.404c0.949,0.376,0.707-0.184,3.1,1.933l-3.603-3.533c0.817,0.723,1.477,1.235,2.24,1.883    l3.278,3.575c-4.549-4.14-2.863-1.842-5.006-3.39c-3.851-4.101-3.359-3.202-5.767-5.795c0.671-0.168-6.949-8.384-11.257-13.232    c0.706,0.717,1.616,1.642,2.108,2.141c3.59,3.06-1.938-2.638-1.946-2.876l-2.633-2.214c0.485,0.427,1.214,0.96,0.24-0.133    c-3.359-3.203-3.584-2.596-6.938-5.792c-0.015-0.477,3.105,1.941,1.19-0.217c-0.5-0.904-2.2-3.677-6.756-7.824    c-0.396-0.22-1.574-1.298-2.92-2.568c0.194,0.169,0.432,0.389,0.53,0.454l-2.638-3.143c2.857,2.068,4.794,5.167,7.666,7.246    l0.585-0.165c1.928,1.925,4.706,4.379,6.103,5.387c-2.873-3-3.59-3.52-6.952-6.727c-0.223-0.697,2.267,1.44,2.625,1.748    l-0.704-0.276c3.606,4.227,6.215,5.496,11.021,10.441c0.721,0.751,0.244,0.33,0.009,0.237c4.31,3.584,7.685,7.954,12,11.312    l-1.448-1.053c2.791,2.431,8.252,7.187,13.708,11.938l0.187-0.105c-0.479-0.654,1.432,1.267,2.4,2.354l-0.007-0.003    c2.729,2.391,5.351,4.687,7.495,6.564c-0.553-0.732-1.301-1.632-2.225-2.597c-0.971-0.629-5.521-5.46-5.267-4.428    c-1.932-2.402-5.76-5.556-7.204-7.295c2.649,3.15-2.387-1.651-3.109-1.945c-0.729-1.22-4.315-4.278-3.605-4.229    c-0.486-0.658,1.205,1.643,2.636,2.678c3.344,2.729-5.289-5.831-1.213-2.34c-5.043-4.579-11.283-11.021-16.551-15.679l2.644,2.913    c-2.158-2.254-7.453-7.402-7.684-7.952c1.678,1.601,3.59,3.521,5.753,5.552c0.475-0.271-5.042-5.038-5.045-5.501l-6.708-5.474    l2.647,2.688c-1.907-1.454-7.211-7.305-11.293-11.492c2.882,1.861,6.25,6.224,10.805,10.369c3.354,2.966-1.458-2.444,1.654,0.424    c-0.656-0.894-2.622-2.832-3.712-3.665l-1.087-1.272c3.132,2.204,9.009,8.288,13.389,11.87c-0.399-0.3-0.756-0.552-0.92-0.608    c2.885,3.245,6.005,6.351,9.117,9.216c-1.434-1.727-2.159-2.253-3.116-3.103c0.002-0.227,2.873,2.544,4.067,3.484    c-2.645-2.915-0.245-0.792-1.927-2.627c1.921,1.7,3.355,3.199,5.513,5.454c0.969,1.319-1.188-0.705-1.184-0.242    c2.41,2.134,2.899,3.722,6.49,6.782c-4.326-4.52,1.666,0.666,3.344,2.035l-0.726-0.758c1.672,1.133,2.874,2.313,3.596,3.528    c-1.921-1.7-3.596-3.528-3.355-2.739c1.208,1.184,2.411,2.365,3.848,3.636l-1.429-1.033l6,5.886    c1.183,0.699,3.095,1.93,4.275,2.396c1.207,1.645,3.374,3.447,4.811,4.716l-0.73-0.528c2.415,2.828,8.42,8.487,9.126,8.766    c1.682,2.063-14.6-11.877-1.163,1.163c5.035,5.03,3.817,2.452,6.926,5.089c0,0-0.232-0.093,0.008,0.237    c2.153,2.252,2.633,2.214,4.554,3.914c-1.217-1.424-3.126-3.343-3.841-3.86c0.948,0.378,4.562,4.612,6.474,6.075    c-2.63-1.751,4.089,4.425,2.164,2.95c4.097,4.663,9.128,8.999,11.753,10.975c2.42,3.524,5.286,5.14,9.854,10.219    c-0.725-0.758-2.153-2.021-3.131-3.117c-3.1-2.399,4.815,5.183,0.263,1.271c0.96,0.85,0.25-0.122-0.733-0.995    c-1.663-1.584-3.346-2.959-3.097-2.392l3.622,4.24l-1.457-1.287l5.538,6.395c0.232,0.092-0.239-0.555-0.483-0.886    c6.731,7.108,14.882,14.781,20.887,20.901c1.063,0.075,4.9,3.7,9.16,7.844c1.063,1.037,2.157,2.103,3.237,3.156    c0.542,0.525,1.08,1.049,1.609,1.563c0.208,0.198,0.415,0.396,0.619,0.591l0.368,0.335c0.477,0.438,0.934,0.853,1.472,0.938    c0.521,0.108,1.01-0.026,1.329-0.265c-0.33,0.348-0.674,0.656-0.863,0.937c-0.189,0.287-0.219,0.574,0.115,0.776    c-0.445,0.028-1.189,0.041-1.924-0.41c-0.367-0.219-0.729-0.533-1.129-0.869c-0.201-0.174-0.389-0.345-0.604-0.554    c-0.303-0.297-0.606-0.605-0.906-0.926c-0.237-0.555-3.117-3.794-0.966-2.006c-6.959-6.734,0.494,1.359-1.895-0.293    c1.869,1.82,3.9,3.743,4.769,4.469c1.006,1.058,2.466,1.372,3.59,0.876c1.165-0.445,1.729-1.561,2.368-2.304l0.115-0.147    c0.031-0.043,0.076-0.099,0.157-0.19l0.418-0.481l0.834-0.954c0.562-0.629,1.12-1.256,1.685-1.888l0.238-0.005l3.395-3.837    c-3.021,2.89-3.435,2.183,0.57-1.429l-0.436,0.49c2.407-1.937,6.649-6.732,10.079-10.089l1.977-2.625    c3.436-3.361,4.185-2.904,5.65-3.648c5.368-5.284,7.95-8.854,11.439-12.931c1.974-1.448,10.014-9.364,6.106-4.818    c4.572-5.035,2.193-5.476,11.215-12.935l-1.885,2.393c7.825-7.932,18.556-19.672,22.453-23.035    c-1.995,3.818,10.768-8.913,13.062-9.42c-0.595,0.187,2.298-2.842,2.62-3.382c0.753-0.544,1.935-1.522,2.896-2.853    c-3.252,2.893,1.232-3.087-4.281,3.147c2.36-3.585,5.711-7.893,12.253-14.375l0.274,0.471l-5.265,5.039    c0.795-0.246-1.877,2.385-2.837,3.6c9.793-9.375-0.382,2.127,9.366-7.719c0.705-1.188,0.191-0.475,2.643-3.118    c-1.185,1.21-1.144,1.683,0.791-0.242l1.556-2.151c4.043-2.8-5.259,6.068-1.903,3.586c-3.49,4.076-9.886,10.785-8.189,10.04    c6.351-6.006,4.667-6.449,11.343-12.693l0.891-0.485c2.134-2.41,2.173-3.105,3.219-4.547c0.228,0.003,0.891-0.488,2.384-1.914    c3.357-4.316,5.81-6.957,8.826-11.019c-9.027,9.812-8.417,7.689-17.79,17.761c1.369-1.678,8.101-8.636,8.006-9.572l0.282,0.464    c2.968-3.355,5.936-6.707,10.028-10.554l-2.214,2.633c5.003-5.522,9.314-8.182,12.846-12.955c-1.5,1.434-2.679,2.635-3.527,3.597    c2.542-2.875,5.978-6.235,8.985-9.116l5.475-6.707c0.132,0.239,4.002-3.61,2.436-1.452c4.67-4.102,6.181-6.725,8.622-9.352    c4.888-4.094-3.713,4.067-3.638,5.022c6.359-6.015,12.761-12.729,15.916-16.555c-1.337,1.187-2.014,1.735-2.04,1.581    c0.305-0.07,2.768-2.593,4.16-3.979l0.713-1.198l0.058-0.05l0.015-0.013l0.129,0.127v0.001l0.005,0.008l0.02,0.021    c0.017,0.016,0.04,0.034,0.068,0.052c0.005,0.002-0.02-0.008-0.006,0c0.042,0.02-0.024-0.008,0.013,0.007    c0.064,0.023,0.119,0.046,0.146,0.073c0.01,0.011,0.076,0.059,0.07,0.078c0,0.01,0.003,0.024,0.01,0.044l0.014,0.036    c-0.013,0.028,0.056-0.005-0.03,0.086c0.048-0.044,0.058-0.058,0.05-0.057l0.002-0.015l0.01-0.023    c0.001-0.018,0.047-0.008,0.032-0.035c-0.036-0.051,0.032-0.048-0.024-0.099c0.022-0.056-0.125-0.119-0.124-0.14    c-0.031-0.001-0.048-0.001-0.05-0.006c0,0.012,0.001-0.039,0.009,0.021c0.008,0.052,0.024,0.102,0.049,0.149    s0.057,0.091,0.095,0.13l0.063,0.053c0.01,0.004,0.081,0.063,0.019-0.004l-0.406-0.496l-0.197-0.25l-0.003-0.004    c0.661,0.731,0.184,0.203,0.331,0.366h-0.001v0l-0.002,0l-0.002,0.001l-0.005,0.001l-0.005,0c-0.005-0.004,0.002-0.02,0.015-0.051    c-0.011-0.001,0.02-0.076,0.017-0.134c0.036-0.04,0.035,0.003,0.083-0.038c0.037-0.014,0.041,0.029,0.099,0.008l0.01-0.002    l0.005-0.001l0.002,0c0.277,0.307-0.378-0.418-0.31-0.342l0.003,0.003l0.011,0.012l0.088,0.099l0.176,0.199l0.351,0.402    c0.012,0.014,0.036,0.04,0.037,0.044l-0.024-0.013l-0.045-0.032c-0.028-0.022-0.053-0.048-0.073-0.077    c-0.041-0.051-0.063-0.139-0.066-0.178c0.067,0.117,0.053,0.297-0.011,0.399c-0.01,0.029-0.008,0.068-0.055,0.078    c-0.013,0.011-0.02,0.026-0.022,0.047c0.021-0.008-0.043,0.056-0.103,0.115l-0.169,0.167c-0.443,0.446-0.865,0.87-1.259,1.264    c-0.781,0.794-1.433,1.482-1.88,2.02c0.957-1.017,1.811-1.892,2.591-2.666c0.196-0.192,0.386-0.379,0.571-0.562l0.276-0.268    c0.031-0.04,0.017-0.039,0.031-0.055c0.013-0.025,0.059-0.027,0.081-0.045c0.004-0.029,0.02-0.047,0.05-0.062    c0.048-0.007,0.032-0.044,0.051-0.065c0.008-0.025,0.064-0.039,0.067-0.069c-0.012-0.057,0.096-0.111,0.075-0.175    c0.007-0.031,0.025-0.064,0.052-0.103c-0.01-0.03-0.01-0.062-0.001-0.098c0.018-0.158,0.055,0.053,0.193,0.053l0.051,0.006    c0.023,0.005-0.043-0.069-0.06-0.1l-0.174-0.249l-0.175-0.251l-0.089-0.127l-0.045-0.063l-0.022-0.032l-0.006-0.008    c-0.06-0.066,0.508,0.561,0.268,0.295l-0.001,0l-0.004-0.002c-0.034-0.027-0.063-0.062-0.086-0.107    c-0.02-0.053-0.046-0.101-0.094-0.115c-0.118-0.188-0.366-0.232-0.632-0.273c-0.121-0.034-0.326,0.045-0.383,0.038    c0.021-0.001,0.038-0.015,0.049-0.039c0.006-0.012,0.009-0.027,0.01-0.043c0.006-0.021,0.011-0.051-0.076,0.028    c-0.126,0.102-0.254,0.206-0.383,0.311l-0.195,0.16l-0.1,0.081l-0.024,0.021l-0.006,0.005c0.55-0.498,0.148-0.135,0.271-0.244    l-0.012,0.011l-0.045,0.046c-0.972,0.978-2.049,2.092-3.262,3.381c-0.239,0.007,1.23-1.913-0.701,0.012    c-4.379,4.557-0.668,1.667-1.794,3.331c1.645-1.795,2.903-3.055,4.039-4.079c0.568-0.511,1.105-0.963,1.645-1.394l0.813-0.633    c0.312-0.282-0.423,0.382-0.347,0.314l0.002-0.001l0.003-0.002l0.007-0.004l0.015-0.008l0.027-0.017l0.055-0.034l0.111-0.067    l0.224-0.135c0.139-0.078,0.326-0.206,0.43-0.244c0.05-0.053-0.193,0.245-0.39,0.492c-0.052,0.065-0.104,0.129-0.152,0.19    l-0.069,0.087l-0.017,0.021l-0.008,0.01l-0.001,0.001l-0.001,0c-0.081,0.074,0.713-0.644,0.376-0.34v0.001l-0.002,0.002    l-0.003,0.005l-0.026,0.041c-0.068,0.104-0.113,0.174-0.113,0.174c-0.241,0.037-2.406,2.191-3.142,2.729l-0.154,0.957    c-0.188-0.7-3.98,2.417-6.53,5.299c3.065-2.422,2.308-1.698,3.56-1.94c-3.34,4.298-4.779,3.839-8.553,8.626    c0.179-0.463,3.809-4.307,0.471-1.187c-2.692,2.654-1.99,2.643-3.673,4.545c1.649-2.388,0.856-2.144,2.606-4.771    c4.702-4.795,1.921-1.911,6.401-6.714l-4.242,3.617c3.964-4.084,2.504-3.349,2.693-3.822c-7.247,6.496-4.617,5.74-9.136,10.064    c-1.877,2.385,4.195-4.088,1.126-0.488c-4.188,4.081-0.701,1.184-5.181,5.985l0.607-0.947c-1.639,1.199-2.771,2.872-4.374,4.55    c-1.693,1.917,3.328-0.759-4.069,6.688c0.261-0.466,0.329-0.666,0.286-0.708l4.136-10.345    c-7.513,7.528-16.265,16.107-25.182,24.608c-2.657,1.444,5.716-6.716,4.909-6.457l4.097-3.848c0.034,0.48-8.243,8.401-4.201,5.269    c6.829-7.199,10.308-10.086,16.432-17.27c-2.676,1.458-8.656,8.872-13.455,12.73c1.857-1.778,3.325-3.379,4.728-4.956    c-4.145,3.985-8.579,8.25-13.294,12.784l-0.893,1.186c3.186-3.048,5.394-5.153,5.693-5.409c-4.186,4.079-7.334,7.901-7.164,8.621    l0.75-0.718l-1.354,1.632C374.144,219.819,373.146,220.76,372.154,221.696z M103.124,184.763c0.294,0.208,0.542,0.356,0.75,0.44    C103.657,185.117,103.784,185.329,103.124,184.763z M422.222,186.275c2.798-2.714,5.606-5.44,8.388-8.14    c1.393-1.349,2.777-2.69,4.15-4.021l1.026-0.998c0.157-0.137,0.372-0.392,0.57-0.628c0.188-0.245,0.418-0.462,0.561-0.738    c0.677-1.052,0.979-2.29,1.011-3.515c-0.107,1.103-0.389,2.168-0.972,3.025c-0.246,0.455-0.593,0.82-0.938,1.167    c-0.174,0.187-0.338,0.343-0.479,0.449l-0.443,0.366c-1.174,0.959-2.257,1.845-3.207,2.621c-1.91,1.539-3.313,2.611-3.891,2.915    c-0.577,0.303-0.33-0.163,1.061-1.701c0.695-0.769,1.676-1.806,2.981-3.148c0.656-0.668,1.391-1.416,2.208-2.248    c0.225-0.209,0.377-0.417,0.547-0.626l0.259-0.319l0.192-0.374l0.203-0.38l0.123-0.423c0.039-0.143,0.093-0.285,0.124-0.433    c0.014-0.151,0.027-0.305,0.042-0.459c0.063-0.006-0.119-1.29-0.164-1.275c0.071,0.628,0.108,1.397-0.188,2.168    c-0.091,0.402-0.348,0.759-0.565,1.138c-0.143,0.169-0.287,0.342-0.434,0.517c-0.154,0.181-0.38,0.382-0.57,0.576    c-1.591,1.574-3.323,3.331-4.982,5.054c-1.213,1.524-3.74,4.781-5.94,7.657c-1.093,1.444-2.109,2.788-2.849,3.765    c-0.731,0.984-1.175,1.608-1.125,1.61c1.215-0.724,2.359-2.406,4.197-4.093L422.222,186.275z M416.83,188.72    c-3.222,3.026-2.315,2.51-2.625,3.17c1.077-1.122,2.152-2.242,3.216-3.349C416.962,188.912,416.695,189.055,416.83,188.72z     M414.568,191.879c0.355-0.347,0.663-0.638,0.843-0.771L414.568,191.879z M398.267,194.203c0.135-0.144,0.183-0.195,0.311-0.332    c-0.751,0.724-1.504,1.451-2.29,2.208C396.615,195.808,397.207,195.26,398.267,194.203z M405.037,188.292l0.42-1.063    c-0.699,0.676-1.414,1.366-2.145,2.071C403.696,189.209,404.07,189.088,405.037,188.292z M426.473,168.969    c0.225-0.417,0.661-1,1.187-1.652c0.267-0.322,0.551-0.666,0.84-1.015l0.22-0.261l0.11-0.131l0.056-0.065    c-0.05,0.044,0.112-0.103-0.11,0.099l0.002-0.001l0.004-0.004l0.008-0.007l0.016-0.015l0.03-0.03l0.49-0.474    c0.182-0.197,0.278-0.225,0.381-0.295c0.109-0.065,0.191-0.155,0.313-0.225c0.278-0.098,0.523-0.281,0.768-0.335    c0.241-0.064,0.451-0.158,0.615-0.221c0.164-0.042,0.281-0.101,0.327-0.176c0.17-0.062-0.009-0.144-0.403-0.213    c-0.199,0.004-0.448,0.01-0.728,0.016c-0.276,0.033-0.572,0.135-0.888,0.203c-0.307,0.173-0.603,0.252-0.93,0.507l-0.489,0.391    l-0.123,0.099c0.035-0.035-0.056,0.054-0.077,0.075l-0.229,0.224c-0.611,0.598-1.241,1.214-1.89,1.849    c0.021,0.109-0.174,0.425-0.542,0.909c1.323-1.211,2.28-1.947,2.04-1.161c-3.854,2.662-2.495,3.343-6.169,6.711    C420.494,175.205,425.531,170.162,426.473,168.969z M176.816,271.052c-0.061-0.139-0.305-0.582-0.664-1.189l2.701,2.261    c4.328,4.521,7.233,8.705,11.766,12.139c1.726,2.002,2.432,3.292,3.145,4.485c-0.895-0.93-1.725-1.807-2.399-2.555    C179.392,275.832,186.391,279.522,176.816,271.052z M226.905,322.71c-0.483-0.429-0.72-0.521-0.72-0.521    c10.703,9.07,19.08,16.974,24.378,22.336c-0.71-1.357-5.24-6.39-7.376-8.794l2.38,1.644l0.966,1.546l3.828,3.157    c-0.729-1.225-3.601-3.993-5.296-6.069c-0.234-0.094-6.702-5.701-8.617-7.161l4.569,5.078c-1.2-1.405-7.684-7.72-10.316-10.163    c-0.235,0.136,3.853,4.794,4.805,4.943c0.246,0.794-4.798-4.244-1.904-0.763c-4.07-3.484-9.837-9.74-12.49-12.665l-0.011-0.933    c-2.88-3.239-2.623-1.512-5.991-5.414c4.559,4.38-0.25-1.261,3.339,2.26c-0.961-1.309,0.464-0.511-3.132-4.038    c-3.576-2.355-3.372-4.138-6.714-6.402c-1.683-2.063,2.383,1.648-1.221-2.118c-4.547-3.906-4.533-3.433-5.239-3.25    c3.828,4.077,5.019,3.863,8.143,7.204l-7.19-5.669c1.078,1.292,1.943,2.181,2.709,2.886c-1.336-1.248-2.546-2.232-3.641-3.017    c-0.617-0.454-1.186-0.872-1.71-1.259c3.64,3.648,6.865,6.896,7.248,7.656l-0.718-0.287c1.092,1.488,3.35,3.437,4.478,4.248    c3.286,3.239,6.846,6.198,7.279,7.19l-1.436-1.042C221.381,317.245,221.855,317.666,226.905,322.71z M361.486,247.3    c-3.22,1.641-6.598,3.624-17.804,15.106l0.838-0.947c-6.213,5.221-10.491,11.802-17.997,18.207    c3.078-3.673,2.923-3.465,5.969-7.871l-3.398,3.844c0.574-1.433-2.816,2.401-5.493,5.038l1.834-2.856    c1.741-1.447,5.929-5.529,5.691-5.524c-0.849,0.962,6.104-4.813,9.412-8.419c-0.703,0.011-7.861,7.45-5.168,3.625    c-2.636,3.109-3.338,3.12-6.219,6.245c2.643-3.117,0.24-1.186,2.132-3.582l-4.806,5.042c-0.244,0.013,6.914-7.427,2.454-3.818    c-1.791,2.154-7.287,7.193-7.008,7.661l-0.236,0.007c-3.771,3.609-1.096,2.151-5.84,6.47c0.134,0.241,1.128-0.493,2.713-2.155    c1.289-1.455,1.243-1.922,4.017-4.801c1.559-0.976-3.445,3.373-0.989,1.904c1.22-0.729,7.249-7.674,5.736-5.052l-3.764,3.603    c0.279,0.469-2.41,3.115-2.034,3.341c-2.115,2.39-4.661,4.096-6.638,6.721c-0.714,1.196,1.403-0.022-2.599,3.589    c-3.526,2.422-12.183,11.293-15.387,14.654l-2.634,3.111c0.474-0.016,5.457-5.521,3.91-3.378l-4.39,4.569l0.202-0.489    c-1.517,1.453-2.88,3.125-4.152,4.562c1.126-1.664,4.463-4.785,3.433-4.532c-2.18,2.026-2.645,2.202-4.505,4.212    c0.395-0.449,0.72-0.852,0.612-0.853c-4.426,4.089-3.677,4.547-4.617,5.74c-3.774,4.787,4.783-3.845,4.637-2.897l-12.283,12.712    c0.941-1.194,1.891-2.395,1.328-2.151c-3.245,2.886-0.371-0.231-4.656,4.091c0.838,0.225-5.088,5.75-7.82,9.098    c-1.639,1.202-1.975,1.451,1.125-1.661c-0.685-0.006-4.775,4.35-6.216,5.729c-0.365,0.451-0.892,1.045-1.438,1.656    c-0.3,0.273-0.582,0.589-0.909,0.803c-0.337,0.195-0.635,0.439-0.948,0.534c0.828-0.153,1.076-0.22,0.717,0.142    c-0.095,0.078-0.219,0.206-0.407,0.302c-0.19,0.09-0.427,0.193-0.712,0.31c-0.284,0.121-0.64,0.142-1.036,0.222    c-0.396,0.031-0.856,0.022-1.35-0.053l-0.24,0.035c0.797,0.264,1.717,0.29,2.637,0.142c0.918-0.183,1.823-0.594,2.595-1.219    c0.753-0.657,1.5-1.373,2.269-2.075c0.699-0.659,1.397-1.318,2.083-1.964c2.675-2.551,5.088-4.952,6.295-6.513l-0.611,0.953    c5.407-4.811,10.498-11.737,13.506-13.441c0.041,0.476,1.086-0.968,1.369-0.506l3.471-4.053l-0.613,0.951l6.315-6.483l-0.1,0.239    c2.692-3.389,4.803-6.044,6.489-8.166c-0.156-0.17-0.403-0.022,0.49-1.156c0.938-1.098,1.696-1.882,2.406-2.548    c0.004-0.006,0.004-0.006,0.003-0.008l0.002,0.002c1.617-1.521,2.897-2.335,4.926-4.173l-5.91,5.99    c-0.208,0.761,0.584,0.541,3.693-2.181c-1.183,1.202-1.466,1.917,0.042,0.474c0.09-0.234,3.723-4.076,2.078-2.872    c5.552-5.753,15.428-14.179,23.485-23.286c-5.851,6.481,5.312-4.571-1.42,2.387c5.22-4.336,3.676-4.546,8.615-9.348    c0.574-0.256-2.673,2.631-3.479,4.063c8.274-7.92,12.949-14.376,20.917-22.076l0.68,0.01    C358.226,250.759,359.824,249.063,361.486,247.3z M376.553,231.374c1.469-1.547,2.958-3.115,4.472-4.709    c-0.155,0.148-0.299,0.286-0.462,0.44l4.253-4.807c-2.918,2.649-5.131,4.104-1.411,0.032c-0.186,0.47,1.128-0.494-0.144,0.944    c2.817-2.404,8.745-7.931,6.731-6.958c-4.524,5.508-1.832,0.506-5.409,4.813c1.776-2.455,4.024-4.397,5.871-6.546    c-1.796,2.363,1.128,0.158,4.387-2.83c1.276-1.444,5.036-5.043,7.158-7.44c-1.124,0.487,0.661-1.663-3.101,1.939    c1.268-1.434,3.291-3.591,5.797-5.769c-0.874,0.983-2.458,2.646-2.23,2.649c1.804-1.218,3.56-3.001,4.662-3.852    c0.762-0.796,1.53-1.599,2.277-2.38c-0.256,0.2-0.489,0.362-0.676,0.458l2.307-2.869c-3.297,3.596-1.74,1.446-1.882,1.215    c0.28,0.466,2.267-2.17,3.434-3.362l-2.956,2.169c1.041-1.436,4.657-4.088,3.621-3.832c-5.594,5.281-7.617,7.438-12.416,12.472    l2.302-1.69c-5.331,5.764-3.946,2.897-10.156,9.136c-2.308,2.867-9.341,9.38-8.91,10.068c0.61-0.951-4.373,3.378-6.253,5.765    c-1.846,2.869-8.907,10.068-6.514,8.142c1.933-1.92,4.244-4.794,6.126-6.01l-3.63,3.844l2.73-2.173    C375.164,231.397,375.56,231.547,376.553,231.374z M410.476,174.681c-0.043,0.039-0.1,0.089-0.151,0.137    c0.056-0.055,0.109-0.107,0.162-0.159L410.476,174.681z" fill="#202020"/><path d="M120.339,216.898c-1.202-0.947-3.838-3.625-3.591-2.831C116.985,213.701,121.541,218.768,120.339,216.898z    " fill="#202020"/><path d="M117.457,213.426c-0.259-0.115-0.244,0.13-1.447-1.051l3.359,3.206L117.457,213.426z" fill="#202020"/><path d="M116.185,208.036c-1.917-1.468-3.117-2.414-5.754-5.091c-0.263-1.733,4.556,4.144,6.446,4.663    c-4.801-4.939-6.938-5.792-11.006-9.736C107.549,200.163,115.481,208.448,116.185,208.036z" fill="#202020"/><polygon fill="#202020" points="119.278,209.27 116.403,206.728 116.627,207.038 119.504,209.583   "/><path d="M171.554,274.318c0.014,0.474,1.928,1.936,2.889,2.785C173.722,276.352,172.752,275.261,171.554,274.318z" fill="#202020"/><path d="M168.782,240.902L147.9,220.463C153.908,226.344,159.455,231.773,168.782,240.902z" fill="#202020"/><path d="M241.615,341.377c-5.764-5.331-8.625-7.4-14.378-12.951c6.97,7.895,10.54,9.094,16.307,15.809    L241.615,341.377z" fill="#202020"/><path d="M237.826,341.252c-0.487-1.352,4.787,3.773,4.299,2.651c-3.845-3.634-2.153-1.329-5.509-4.76    L237.826,341.252z" fill="#202020"/><polygon fill="#202020" points="219.839,308.962 221.746,310.419 220.309,309.146   "/><polygon fill="#202020" points="272.925,341.734 272.409,342.445 275.328,339.801   "/><path d="M271.897,343.158l0.513-0.713L271.897,343.158z" fill="#202020"/><polygon fill="#202020" points="222.928,310.195 220.521,307.602 219.085,306.564   "/><path d="M242.674,334.583l-2.375-2.098C240.769,332.902,243.651,336.139,242.674,334.583z" fill="#202020"/><polygon fill="#202020" points="290.097,324.93 292.652,322.043 292.331,322.278 289.784,325.156   "/><path d="M258.354,343.172c-0.532,0.199,0.046-0.424,0.491-0.904c0.176-0.187,0.341-0.362,0.472-0.501    c0.163-0.175,0.279-0.308,0.313-0.365s-0.014-0.042-0.179,0.079c-0.081,0.063-0.192,0.149-0.34,0.264    c-0.072,0.059-0.154,0.125-0.244,0.198c-0.09,0.072-0.112,0.078-0.178,0.126C257.37,343.49,257.999,343.208,258.354,343.172z" fill="#202020"/><path d="M292.759,313.276c0.367-0.367,0.742-0.766,1.078-1.175C293.412,312.564,293.056,312.952,292.759,313.276z" fill="#202020"/><path d="M292.759,313.276c-1.185,1.185-2.497,2.243-3.214,3.151C291.173,315.1,291.655,314.506,292.759,313.276z" fill="#202020"/><path d="M306.259,299.622l-1.099,1.051c0.934-1.262,0.438-0.718-0.41,0.395c-1.128,1.15-0.958,1.191-1.021,1.398    c-0.186,0.27-0.371,0.538-0.571,0.829c0.306-0.396,0.58-0.752,0.813-1.054C305.738,300.479,306.798,299.387,306.259,299.622z" fill="#202020"/><path d="M362.3,254.789c-4.093,3.844-5.179,4.811-5.222,4.337c-3.85,3.685-2.82,3.545-4.989,5.92    C356.302,260.734,357.292,259.982,362.3,254.789z" fill="#202020"/><path d="M352.089,265.047c-0.471,0.484-0.921,0.947-1.468,1.509C351.249,265.943,351.699,265.473,352.089,265.047z    " fill="#202020"/><polygon fill="#202020" points="287.568,312.668 289.639,309.806 288.788,310.766   "/><path d="M368.319,249.03c-0.752,0.72-1.92,1.911-2.588,2.401C365.778,251.902,369.07,248.311,368.319,249.03z" fill="#202020"/><path d="M347.951,259.274c-0.561,0.244-3.005,2.878-4.1,3.851C345.367,261.676,347.052,260.943,347.951,259.274z" fill="#202020"/><path d="M378.64,236.579c-0.753,0.719-2.059,1.677-1.782,0.974C375.915,238.749,374.924,240.651,378.64,236.579z" fill="#202020"/><polygon fill="#202020" points="355.251,252.067 354.596,252.546 352.046,255.427   "/><path d="M341.751,257.942c-2.746,3.362,5.589-4.103,0.589,1.419c7.108-6.463-0.957,0.084,4.099-4.872    C343.404,257.317,341.577,258.363,341.751,257.942z" fill="#202020"/><path d="M346.439,254.49c0.442-0.41,0.913-0.862,1.415-1.362C347.289,253.672,346.833,254.11,346.439,254.49z" fill="#202020"/><path d="M391.376,213.451c-0.411,0.476-0.679,0.814-0.922,1.131C390.778,214.207,391.079,213.842,391.376,213.451z    " fill="#202020"/><path d="M362.171,238.248l-4.115,5.041c2.75-3.366,10.461-11.04,9.521-11.021c-2.585,2.398-5.46,5.518-6.492,6.948    L362.171,238.248z" fill="#202020"/><path d="M423.071,194.052l-1.796,2.16l2.523-2.416C423.022,194.434,423.963,192.816,423.071,194.052z" fill="#202020"/><path d="M424.285,193.328l-0.487,0.468C423.915,193.702,424.071,193.555,424.285,193.328z" fill="#202020"/><path d="M382.941,222.333c-1.512,1.447-2.683,2.642-3.949,4.074C379.638,225.934,383.405,222.33,382.941,222.333z" fill="#202020"/><polygon fill="#202020" points="436.328,179.453 433.143,182.797 436.671,179.201   "/><polygon fill="#202020" points="421.469,160.544 420.819,161.02 418.278,163.892 418.936,163.407   "/><path d="M423.359,175.864c-2.262,2.165-3.577,4.307-2.91,3.815l4.272-4.31c-1.452,0.729-1.18,1.201-3.759,3.597    L423.359,175.864z" fill="#202020"/><path d="M309.073,274.294c0.718-1.2,5.551-5.755,6.026-5.771c-0.53,0.73-2.98,3.37-1.235,1.918l3.12-4.307    c5.31-4.57-2.975,4.534-5.204,7.184c5.109-4.955,6.21-6.837,11.565-12.188c-1.632,1.526-2.778,2.376-3.739,3.082    c-0.6-0.235,4.573-5.038,8.106-8.637c-2.452,2.088-1.292,0.622,0.198-1.195c0.284-0.311,0.458-0.533,0.571-0.701    c0.172-0.212,0.335-0.414,0.502-0.62l-0.427,0.428c-0.017-0.077-0.168-0.039-0.554,0.191c-2.87,3.114-5.508,5.053-7.439,6.974    c2.583-1.224-6.402,6.717-8.614,9.348l-2.729,2.863l-1.045,1.047c-0.284,0.136-0.08-0.255,1.38-1.984    c-1.197,1.465-5.683,5.857-5.055,5.666l-10.121,10.14c-0.343,0.288-0.693,0.569-0.976,0.754c-0.309,0.394-0.332,0.487-0.251,0.476    c-12.385,12.412-24.769,24.825-37.153,37.209l-0.178-0.146c0.057,0.088,0.115,0.19,0.178,0.307c0.168-0.03,0.4-0.069,0.691-0.252    c-0.109,0.561,0.027,0.465,0.297,0.229l0.098-0.085c0.044-0.039,0.017-0.006,0.229-0.21c0.313-0.299,0.61-0.577,0.861-0.795    c0.502-0.438,0.814-0.636,0.674-0.281c-0.34,0.417-0.736,0.865-1.163,1.322c-0.287,0.304-0.246,0.272-0.32,0.353l-0.173,0.178    c-0.238,0.227-0.487,0.399-0.664,0.473c-0.021,0.235,0.099,0.319,0.263,0.369c0.159,0.055,0.365,0.072,0.405,0.29    c0.266-0.198,0.505-0.41,0.708-0.617c0.052-0.056,0.771-0.811,1.165-1.261c0.892-1.004,1.592-1.9,2.284-2.798    c1.385-1.793,2.74-3.585,5.539-6.228c0.043,0.474-1.413,2.382,2.114-1.216l-0.85,0.961c5.415-5.993,5.027-3.86,7.91-8.159    l0.278,0.468c2.307-2.869,7.339-7.905,10.125-10.793l-0.098,0.241c7.531-8.386,4.377-4.559,13.135-13.674l-3.678,4.548    c3.263-2.903,3.484-4.071,5.747-6.235c-0.087,0.23,0.699-0.011-1.324,2.147l10.181-11.507    C312.741,270.929,309.635,274.05,309.073,274.294z" fill="#202020"/><path d="M323.346,261.13c0.594-0.554,1.255-1.197,2.01-1.981C324.608,259.885,323.963,260.521,323.346,261.13z" fill="#202020"/><path d="M255.502,325.709l0.32,0.313C255.73,325.885,255.646,325.787,255.502,325.709z" fill="#202020"/><path d="M338.074,244.773c-2.072,1.688,1.139-1.678,1.323-2.149l-6.728,6.741c0.174,0.113-0.332,0.941-0.065,0.937    L338.074,244.773z" fill="#202020"/><path d="M330.449,251.045c-0.128,0.328-0.751,1.13-1.465,2.013l3.686-3.692    C332.539,249.281,332.028,249.596,330.449,251.045z" fill="#202020"/><polygon fill="#202020" points="338.828,257.997 337.649,259.202 335.956,261.116   "/><path d="M319.551,276.01c1.642-1.206,4.178-4.072,5.026-5.031C321.471,274.099,322.738,272.668,319.551,276.01z" fill="#202020"/><polygon fill="#202020" points="325.733,274.497 322.855,277.621 323.177,277.385   "/><path d="M231.978,305.12c-0.5-0.483-0.985-0.953-1.491-1.442C231.158,304.35,231.607,304.779,231.978,305.12z" fill="#202020"/><path d="M255.409,327.84c-0.718-1.032-0.569-1.06-0.313-0.959c0.272,0.118,0.709,0.423,0.905,0.392    c0.136-0.286,0.156-0.498,0.062-0.671c-0.021,0.033-0.042,0.067-0.062,0.088c-0.167-0.057-0.366-0.146-0.598-0.27l0.135-0.152    c0,0-0.187-0.163-0.374-0.327c-1.075-1.051-2.149-2.103-2.149-2.103c0.729,1.221,1.446,1.969,0.975,2.016    c-6.241-6.443-1.693-2.307-6.02-7.285l-7.136-7.042l0.651,0.497c-0.603-0.592-0.898-0.823-1.146-0.986l-24.051-23.729    c-4.551-4.142,1.939,2.869-1.647,0.043c5.039,5.037,12.25,12.798,13.193,12.71c-0.24-0.098-0.716-0.289,0.245,0.793l3.337,2.49    l-2.643-2.914c3.353,2.507,12.719,12.062,14.167,14.035c-5.524-5.236-3.333-2.027-10.552-9.799    c0.206,0.467,1.348,2.069-0.411,0.453c4.466,4.316,8.608,8.501,12.826,12.688c2.109,2.094,4.236,4.188,6.433,6.3    c0.551,0.526,1.104,1.056,1.662,1.588l0.842,0.797l0.409,0.385l0.145,0.118C254.678,327.307,255.055,327.595,255.409,327.84z" fill="#202020"/><path d="M169.745,242.673l0.116,0.022C169.678,242.562,169.608,242.529,169.745,242.673z" fill="#202020"/><path d="M172.629,245.684l4.785,3.775l-6.714-6.633l-0.839-0.131c0.68,0.5,3.199,2.661,3.967,3.706    L172.629,245.684z" fill="#202020"/><path d="M182.69,254.123c-3.597-3.296-3.827-2.691-2.137-0.621c-3.358-2.971-1.221-2.119-3.841-3.857    c-0.229,0.373,3.848,4.097,4.799,4.938L182.69,254.123z" fill="#202020"/><polygon fill="#202020" points="207.9,279.772 206.758,278.976 209.099,281.41   "/><path d="M206.758,278.976l-2.324-2.417c0.036,0.292,0.072,0.58,0.372,1.055L206.758,278.976z" fill="#202020"/><path d="M198.335,270.219c-0.972-1.034-2.059-2.168-3.398-3.529L198.335,270.219z" fill="#202020"/><path d="M200.939,273.037l-0.026-0.135l-2.579-2.683C199.266,271.227,200.102,272.131,200.939,273.037z" fill="#202020"/><path d="M204.434,276.559c-0.093-0.677-0.236-1.435-3.745-4.78l0.224,1.123L204.434,276.559z" fill="#202020"/><polygon fill="#202020" points="303.466,295.883 300.921,298.759 301.253,298.517 303.796,295.642   "/><path d="M287.561,311.255c-0.619,0.722-1.073,1.283-1.479,1.801C286.755,312.317,287.268,311.707,287.561,311.255z    " fill="#202020"/><path d="M277.931,324.877c-3.482,2.895,4.009-4.787-2.025,0.986c-0.794,0.247,1.621-2.873,4.537-5.517    c0.036,0.479-2.544,2.873-0.572,1.427c1.548-2.144,2.453-2.643,1.422-2.388c2.864-3.348,2.934-3.97,4.789-6.33    c-3.583,3.926-11.865,11.41-16.133,16.674c-2.159,3.094,0.07,2.137,0.733,2.821C271.236,332.314,278.12,325.58,277.931,324.877z" fill="#202020"/><path d="M283.619,320.533c1.509-1.442,1.933-1.92,2.782-2.881C285.927,317.665,284.801,319.331,283.619,320.533z" fill="#202020"/><path d="M243.244,325.247c-0.377-0.186-3.166-2.736-2.758-1.997l4.168,3.926    C243.72,326.21,243.502,325.758,243.244,325.247z" fill="#202020"/><path d="M246.481,328.899l-1.827-1.724C245.089,327.628,245.651,328.164,246.481,328.899z" fill="#202020"/><path d="M243.111,324.995c0.044,0.084,0.084,0.159,0.133,0.252C243.321,325.283,243.331,325.252,243.111,324.995z" fill="#202020"/><path d="M188.682,260.231c0.242-0.128-1.672-1.82-2.632-2.671C186.771,258.311,187.743,259.406,188.682,260.231z" fill="#202020"/><path d="M120.065,193.07l-1.446-1.74C119.094,191.98,119.34,192.313,120.065,193.07z" fill="#202020"/><path d="M90.46,173.569c-0.082-0.01-0.23-0.098-0.417-0.228C90.225,173.477,90.366,173.556,90.46,173.569z" fill="#202020"/><path d="M90.043,173.341c-1.243-0.935-4.364-4.535-5.807-5.509l0.225,0.082c0,0-0.597-0.528-1.194-1.055    c-0.149-0.132-0.298-0.264-0.438-0.387c-0.067-0.058-0.143-0.131-0.196-0.169c-0.043-0.025-0.084-0.049-0.121-0.07    c-0.142-0.092-0.236-0.153-0.236-0.153c0.218,0.112,1.039,0.955,1.737,1.643c0.737,0.724,1.533,1.505,2.301,2.26    C87.861,171.48,89.321,172.843,90.043,173.341z" fill="#202020"/></g></g></svg>